<svg xmlns="http://www.w3.org/2000/svg" xml:space="preserve" width="305.872" height="305.868" viewBox="0 0 305.872 305.868"><defs><clipPath id="a" clipPathUnits="userSpaceOnUse"><path d="M0 595.276h841.89V0H0Z"/></clipPath></defs><g clip-path="url(#a)" transform="matrix(1.33333 0 0 -1.33333 -409.625 548.326)"><path d="M0 0c.003 62.166 50.39 112.547 112.55 112.552C174.713 112.547 225.101 62.166 225.105 0c-.004-62.166-50.392-112.546-112.555-112.551C50.39-112.546 0-62.166 0 0" style="fill:#fff;fill-opacity:1;fill-rule:nonzero;stroke:none" transform="translate(309.361 296.499)"/><path d="M0 0s-5.07-4.253-3.317-16.978c0 0 12.049-1.775 18.66 7.393 0 0-9.499 1.508-16.638-5.399 0 0 4.658 8.292 1.295 14.984m-5.613-7.589s-5.092-3.503-4.98-16.347c0 0 11.859-4.039 19.589 4.213 0 0-9.488 3.377-17.446-2.564 0 0 5.319 7.631 2.837 14.698M7.77 57.367s-.473-7.125 8.465-14.543c0 0 7.537 5.841 5.953 17.915 0 0-5.503-4.917-5.869-14.845 0 0-1.494 8.979-8.549 11.473M-11.7-15.229s-6.256-2.401-7.746-15.155c0 0 11.233-4.962 19.939 2.033 0 0-8.845 4.283-17.484-.61 0 0 6.866 6.412 5.291 13.732m-8.75-5.917s-6.193-2.324-8.779-14.905c0 0 10.775-5.678 20.069.773 0 0-8.462 4.571-17.491.43 0 0 7.152 6.277 6.201 13.702m37.052 55.995s-1.864 9.331-8.771 12.218c0 0-1.084-6.527 8.527-15.049 0 0 10.308 6.493 9.356 17.77 0 0-8.191-5.048-9.112-14.939M3.737-9.023s12.177.208 17.207 10.345c0 0-9.619-.078-15.539-8.053 0 0 3.246 8.945-1.164 14.986 0 0-4.305-5.016-.504-17.278M16.79 61.811c-.452 3.326-1.783 6.137-3.436 7.676-1.19-1.921-1.729-4.983-1.28-8.312.443-3.33 1.775-6.139 3.433-7.682 1.189 1.929 1.728 4.988 1.283 8.318M9.529.004s11.99 2.159 15.33 12.957c0 0-9.483-1.601-14.044-10.424 0 0 1.776 9.346-3.552 14.609 0 0-3.449-5.646 2.266-17.142m-.538 26.824s-2.741-6.022 4.34-16.737c0 0 11.629 3.601 13.635 14.737 0 0-9.218-2.755-12.67-12.066 0 0 .614 9.488-5.305 14.066m7.382-2.98s-.908 9.469-7.492 13.035c0 0-1.735-6.38 6.972-15.83 0 0 10.902 5.422 11.097 16.732 0 0-8.658-4.196-10.577-13.937m-83.578-59.899c-2.584 12.581-8.778 14.905-8.778 14.905-.952-7.425 6.202-13.702 6.202-13.702-9.029 4.141-17.493-.43-17.493-.43 9.292-6.451 20.069-.773 20.069-.773m-42.559 46.142c7.079 10.715 4.342 16.737 4.342 16.737-5.922-4.578-5.307-14.066-5.307-14.066-3.453 9.311-12.669 12.066-12.669 12.066 2.007-11.136 13.634-14.737 13.634-14.737m-3.03 21.927c9.614 8.522 8.531 15.049 8.531 15.049-6.909-2.887-8.771-12.218-8.771-12.218-.924 9.891-9.112 14.939-9.112 14.939-.954-11.277 9.352-17.77 9.352-17.77m-5.827 28.721c-1.585-12.074 5.952-17.915 5.952-17.915 8.94 7.418 8.467 14.543 8.467 14.543-7.056-2.494-8.551-11.473-8.551-11.473-.365 9.928-5.868 14.845-5.868 14.845m10.116.436c.448 3.329-.091 6.391-1.282 8.312-1.652-1.539-2.981-4.35-3.429-7.676-.451-3.33.087-6.389 1.279-8.318 1.657 1.543 2.987 4.352 3.432 7.682m73.79 54.17-1.519-3.58C-18.72 109.16-3.04 100.941 8.918 88.989 23.541 74.358 32.58 54.168 32.58 31.849c0-22.32-9.039-42.504-23.662-57.139-11.489-11.479-26.407-19.488-43.091-22.413a196.74 196.74 0 0 0-10.934 3.379 167.373 167.373 0 0 1 8.086 3.312c2.887-1.394 9.548-3.761 16.905-.511 0 0-6.331 5.55-15.227 2.247 0 0 6.435 4.901 5.364 12.752-.821-.642-5.491-3.834-8.272-12.739a167.294 167.294 0 0 0-9.965-3.964 166.22 166.22 0 0 0-9.965 3.964c-2.784 8.905-7.455 12.097-8.276 12.739-1.069-7.851 5.368-12.752 5.368-12.752-8.899 3.303-15.227-2.247-15.227-2.247 7.354-3.25 14.017-.883 16.904.511a168.212 168.212 0 0 1 8.086-3.312 196.258 196.258 0 0 0-10.935-3.379c-16.679 2.925-31.603 10.934-43.091 22.413-14.619 14.635-23.662 34.819-23.662 57.139 0 22.319 9.043 42.509 23.662 57.14 11.96 11.952 27.636 20.171 45.155 22.776l-1.521 3.58c-40.29-6.462-71.072-41.382-71.072-83.496 0-40.612 28.634-74.533 66.821-82.693 0 0 8.552 2.047 17.753 5.382 9.199-3.335 17.751-5.382 17.751-5.382C7.722-42.684 36.36-8.763 36.36 31.849c0 42.114-30.782 77.034-71.075 83.496M-66.457-26.524c.006.04.006.074.012.112-.201.054-.178.016-.012-.112m36.469.112c.006-.038.006-.072.009-.112.168.128.191.166-.009.112M-105.962.004c5.714 11.496 2.269 17.142 2.269 17.142-5.332-5.263-3.553-14.609-3.553-14.609-4.563 8.823-14.052 10.424-14.052 10.424C-117.95 2.163-105.962.004-105.962.004m20.125-23.94c.113 12.844-4.983 16.347-4.983 16.347-2.483-7.067 2.838-14.698 2.838-14.698-7.959 5.941-17.452 2.564-17.452 2.564 7.733-8.252 19.597-4.213 19.597-4.213m-7.278 6.958C-91.365-4.253-96.433 0-96.433 0c-3.367-6.692 1.298-14.984 1.298-14.984-7.138 6.907-16.641 5.399-16.641 5.399 6.613-9.168 18.661-7.393 18.661-7.393m16.131-13.406c-1.494 12.754-7.745 15.155-7.745 15.155-1.583-7.32 5.287-13.732 5.287-13.732-8.641 4.893-17.484.61-17.484.61 8.704-6.995 19.942-2.033 19.942-2.033m-35.299 51.437c8.703 9.45 6.969 15.83 6.969 15.83-6.585-3.566-7.493-13.035-7.493-13.035-1.918 9.741-10.575 13.937-10.575 13.937.194-11.31 11.099-16.732 11.099-16.732m12.112-30.076c3.802 12.262-.504 17.278-.504 17.278-4.407-6.041-1.165-14.986-1.165-14.986-5.919 7.975-15.534 8.053-15.534 8.053 5.027-10.137 17.203-10.345 17.203-10.345M30.222-46.587c-20.077-20.072-47.8-32.483-78.438-32.486-30.639.003-58.356 12.414-78.436 32.486-20.075 20.081-32.49 47.801-32.49 78.438s12.415 58.36 32.49 78.437c20.08 20.077 47.797 32.487 78.436 32.488 30.638-.001 58.361-12.411 78.438-32.488 20.077-20.077 32.487-47.8 32.492-78.437-.005-30.637-12.415-58.357-32.492-78.438m-78.438 193.139c-63.347-.004-114.697-51.354-114.699-114.701 0-63.35 51.352-114.695 114.699-114.7 63.349.005 114.698 51.35 114.705 114.7-.007 63.347-51.356 114.697-114.705 114.701" style="fill:#447fc1;fill-opacity:1;fill-rule:nonzero;stroke:none" transform="translate(470.134 264.692)"/><path d="M0 0c1.599.827 1.666.99 1.397 1.843l-.161.52c.034.193.432.376.604.291.44-.935.857-1.778 1.269-2.581.422-.814.876-1.657 1.389-2.56-.035-.191-.424-.392-.597-.306l-.332.432c-.54.713-.715.754-2.314-.076L-5.01-5.676c-1.602-.825-1.669-.986-1.4-1.841l.163-.518c-.032-.189-.426-.395-.591-.31a85.02 85.02 0 0 1-1.289 2.616A84.006 84.006 0 0 1-9.51-3.188c.032.19.427.395.598.311l.333-.432c.537-.714.709-.754 2.31.074z" style="fill:#01499a;fill-opacity:1;fill-rule:nonzero;stroke:none" transform="translate(337.679 254.62)"/><path d="M0 0c1.181.405 2.323.793 2.91 1.031.259-.05.632-.49.78-.926.006-.016-.714-.931-1.472-2.145l-3.764-5.963c-.927-1.49-1.486-2.351-1.646-2.768.211-.029.52.075 1.191.306l3.52 1.198c1.468.505 2.807 1.039 3.231 1.406.322.298.307.755.219 1.248l-.103.535c.1.195.493.289.638.214.299-.992.526-1.724.776-2.449.227-.671.476-1.335.747-2.012-.071-.145-.443-.31-.636-.214l-.161.287c-.256.459-.508.781-.937.795-.56.033-1.937-.382-3.409-.88l-4.611-1.57c-.995-.341-1.28-.456-1.496-.656-.261-.251-.391-.576-.266-1.243l.1-.531c-.1-.177-.541-.305-.654-.144a71.2 71.2 0 0 1-.798 2.521c-.211.614-.41 1.137-.58 1.507.757.46 1.732 2.108 3.119 4.403l1.273 2.139C-1.355-2.793-.9-2.05-.627-1.49c-.205.011-.515-.094-.841-.206L-3.97-2.55c-1.472-.499-2.808-1.034-3.23-1.4-.326-.294-.316-.738-.222-1.254l.095-.516c-.095-.194-.487-.287-.632-.216a66.27 66.27 0 0 1-.775 2.452 36.523 36.523 0 0 1-.749 2.014c.072.145.437.312.634.22l.164-.313c.232-.45.499-.742.936-.775.555-.032 1.94.359 3.413.859z" style="fill:#01499a;fill-opacity:1;fill-rule:nonzero;stroke:none" transform="translate(330.657 271.18)"/><path d="M0 0c.345.051 1.854.33 2.93.658.239-.04.389-.541.236-.699C1.479-.812.708-2.162.977-4.003c.307-2.104 2.441-4.101 6.215-3.549 3.777.553 5.486 3.031 5.151 5.307C12.011.051 10.205.873 8.839 1.198c-.176.126-.186.592.024.737 1.424.071 2.611-.083 3.087-.283.433-.981 1.048-2.268 1.264-3.748.272-1.861.116-3.823-.693-5.315-.845-1.519-2.266-2.791-4.62-3.135-2.314-.339-4.089.408-5.361 1.557C1.224-7.804.37-5.953.085-3.98-.199-2.045.049-.576 0 0" style="fill:#01499a;fill-opacity:1;fill-rule:nonzero;stroke:none" transform="translate(318.396 287.22)"/><path d="M0 0c-.033-.786-.017-.803.52-.824l2.756-.127c1.784-.078 1.96.027 2.11.886l.106.609c.122.145.564.128.672-.032a79.975 79.975 0 0 1-.189-2.906 79.093 79.093 0 0 1-.069-2.856c-.123-.149-.563-.131-.67.03l-.038.462c-.077.883-.262.991-2.044 1.068l-7.123.321c-1.779.078-1.976-.008-2.127-.884l-.079-.456c-.124-.152-.565-.129-.673.027.081.935.141 1.932.186 2.854.038.86.061 1.818.061 2.66.122.149.562.127.67-.027l.039-.406c.078-.83.267-.952 2.045-1.03l2.221-.099c.556-.029.578-.014.612.776l.178 3.984c.035.803.016.803-.539.83l-2.223.101c-1.778.078-1.936-.01-2.111-.887l-.1-.515c-.122-.15-.56-.128-.67.032A89.68 89.68 0 0 1-6.29 6.5c.044.938.061 1.821.063 2.702.123.15.563.128.671-.032l.041-.384c.095-.887.26-1.01 2.04-1.089l7.124-.319c1.78-.081 1.918.028 2.112.902l.097.456c.122.15.563.128.67-.027a74.234 74.234 0 0 1-.183-2.775 69.315 69.315 0 0 1-.065-2.817c-.123-.152-.566-.128-.671.03l-.039.422c-.078.887-.264.992-2.045 1.072l-2.754.121c-.539.027-.558.027-.594-.778Z" style="fill:#01499a;fill-opacity:1;fill-rule:nonzero;stroke:none" transform="translate(324.538 298.786)"/><path d="M0 0c.527-.117.568-.109.682.396l.287 1.292c.217.971.139 1.227-.717 1.616l-.446.196c-.122.165-.016.631.175.687.589-.17 1.261-.34 1.969-.502.71-.16 1.386-.291 1.993-.386.148-.136.06-.604-.136-.696l-.487.012c-.943.01-1.142-.175-1.358-1.152L1.671.174c-.113-.506-.097-.529.463-.653l2.225-.502c.862-.193 1.477-.25 1.842-.098.395.171.621.491.927 1.855.365 1.628.454 2.276-1.43 3.777-.173.197.011.645.249.674.956-.293 2.371-1.082 2.815-1.46-.26-.984-.681-2.773-1.025-4.303l-.543-2.436c-.204-.897-.388-1.817-.668-3.228-.144-.124-.595-.023-.655.149l.065.906c.06.872-.028 1.011-1.746 1.397l-6.978 1.563c-1.701.383-1.838.295-2.194-.51l-.2-.442c-.15-.145-.577-.031-.642.182.232.871.456 1.783.658 2.68l.89 3.967c.269 1.196.491 2.266.507 2.515.302-.046 1.679-.22 2.952-.407.191-.119.129-.556-.081-.706-.699-.061-1.319-.198-1.635-.383-.438-.271-.787-.784-.992-1.701l-.334-1.497c-.143-.617-.103-.621.588-.782Z" style="fill:#01499a;fill-opacity:1;fill-rule:nonzero;stroke:none" transform="translate(325.203 317.565)"/><path d="M0 0c-.914-2.174.63-4.197 3.582-5.432 2.155-.903 5.941-1.596 7.146 1.286.973 2.311-.911 4.163-3.777 5.364C3.931 2.482.917 2.189 0 0m7.911 4.141c3.852-1.616 5.082-5.167 3.49-8.964C9.91-8.375 6.497-9.981 2.806-8.43-.696-6.962-2.304-3.214-.752.481c1.541 3.677 5.071 5.167 8.663 3.66" style="fill:#01499a;fill-opacity:1;fill-rule:nonzero;stroke:none" transform="translate(326.57 336.53)"/><path d="M0 0c1.036-.692 2.04-1.369 2.586-1.686.117-.241-.008-.804-.269-1.186-.009-.015-1.172 0-2.6-.122l-7.016-.619c-1.751-.164-2.771-.239-3.204-.366.106-.182.378-.366.964-.764l3.087-2.074c1.289-.864 2.525-1.604 3.072-1.718.432-.08.786.211 1.13.581l.362.406c.215.039.524-.215.558-.378a63.51 63.51 0 0 1-1.479-2.099 40.648 40.648 0 0 1-1.151-1.812c-.161-.035-.516.159-.558.374l.134.301c.211.483.312.874.064 1.225-.31.466-1.472 1.315-2.763 2.183l-4.04 2.717c-.877.587-1.143.743-1.427.794-.355.055-.696-.039-1.151-.541l-.361-.405c-.204-.025-.575.251-.515.439a58.804 58.804 0 0 1 1.525 2.163c.365.542.659 1.014.847 1.367.827-.321 2.727-.098 5.394.189l2.471.278c1.296.143 2.165.232 2.777.348-.116.171-.385.356-.67.55l-2.201 1.473c-1.285.864-2.522 1.603-3.07 1.718-.428.081-.776-.193-1.128-.581l-.352-.388c-.213-.039-.526.216-.555.378a65.31 65.31 0 0 1 1.48 2.095c.396.591.765 1.175 1.148 1.818.161.032.515-.16.557-.375l-.147-.32c-.211-.452-.289-.843-.05-1.209.313-.466 1.463-1.334 2.752-2.198Z" style="fill:#01499a;fill-opacity:1;fill-rule:nonzero;stroke:none" transform="translate(346.347 353.661)"/><path d="M0 0c.815-.944 1.597-1.861 2.041-2.317.046-.261-.223-.771-.572-1.069-.017-.011-1.131.315-2.539.575l-6.928 1.282c-1.729.309-2.732.507-3.184.502.053-.21.264-.458.724-.996l2.422-2.821c1.008-1.182 2.005-2.221 2.498-2.478.395-.189.816-.006 1.248.26l.456.294c.214-.02.448-.349.437-.512a69.26 69.26 0 0 1-1.987-1.628 37.271 37.271 0 0 1-1.593-1.439c-.162.01-.454.292-.436.51l.208.255c.332.409.535.757.391 1.164-.177.529-1.069 1.662-2.081 2.836l-3.165 3.697c-.687.798-.903 1.021-1.164 1.147-.329.15-.682.15-1.253-.217l-.459-.287c-.2.029-.485.388-.372.558A70.806 70.806 0 0 1-13.263.992c.493.427.903.803 1.181 1.092.704-.527 2.599-.821 5.244-1.257l2.454-.395c1.292-.205 2.151-.354 2.771-.4-.067.195-.28.438-.504.705l-1.721 2.006c-1.011 1.18-2.004 2.22-2.503 2.478-.39.191-.798.016-1.241-.262l-.443-.277c-.216.017-.449.345-.433.506a74.224 74.224 0 0 1 1.99 1.629 38.49 38.49 0 0 1 1.585 1.445c.161-.014.455-.296.439-.511l-.228-.27c-.327-.383-.504-.735-.371-1.154.175-.529 1.053-1.669 2.067-2.846Z" style="fill:#01499a;fill-opacity:1;fill-rule:nonzero;stroke:none" transform="translate(364.349 371.741)"/><path d="M0 0c.376.223.431.323.043.669l-1.219 1.085c-.651.574-1.263 1.123-1.618 1.383.05-.462.193-1.313.396-2.218l.319-1.479c.116-.53.227-.537.639-.291zm-1.251-1.919c-.396-.236-.436-.281-.349-.653l.523-2.275c.095-.389.157-.528.233-.662.062-.098.25-.119.76.072l.546.212c.168-.057.424-.417.307-.6-.596-.306-1.258-.698-1.957-1.092-.562-.332-.914-.604-1.669-1.052-.241-.01-.43.344-.393.546l.417.313c.365.283.618.61.515 1.419-.11.825-.28 1.795-.538 3.246l-.898 4.902c-.235 1.262-.263 2.026-.596 2.475.684.65.818 1.82.851 1.843.212.124.361.099.571-.109.417-.402.976-.89 2.082-1.822L5.226-.292c.931-.783 1.301-1.078 1.973-.81l.687.269c.144-.026.41-.402.322-.586a68.154 68.154 0 0 1-2.567-1.458A57.37 57.37 0 0 1 3.44-4.241c-.238-.009-.476.316-.371.554l.477.397c.34.292.337.447.283.548-.073.11-.421.439-.981.932L1.562-.653c-.239.217-.388.168-.965-.174Z" style="fill:#01499a;fill-opacity:1;fill-rule:nonzero;stroke:none" transform="translate(372.83 379.793)"/><path d="M0 0c-.172.429-.211.521-.636.344l-1.099-.443c-1.3-.527-1.386-1.39-1.391-2.904-.172-.19-.521-.292-.725-.107-.125 1.38-.478 2.518-.637 3.261a.433.433 0 0 0 .214.187.403.403 0 0 0 .277.029c.211-.268.294-.314 1.643.232l6.613 2.679c1.172.475 1.432.604 1.437 1.04a.476.476 0 0 0 .211.146c.106.043.26.024.317-.015.066-.679.526-2.164.972-3.164-.022-.198-.49-.426-.634-.321-.765 1.015-1.353 1.749-2.684 1.208L2.809 1.74c-.423-.17-.455-.246-.268-.707l3.176-7.838c.668-1.653.833-1.753 1.677-1.537l.741.201c.173-.056.339-.464.256-.621-1.17-.432-2.062-.776-2.863-1.097a112.18 112.18 0 0 1-3.001-1.281c-.186.051-.352.461-.25.622l.76.415c.765.411.807.615.138 2.267z" style="fill:#01499a;fill-opacity:1;fill-rule:nonzero;stroke:none" transform="translate(382.307 391.11)"/><path d="M0 0c.444-1.75.587-1.851 1.48-1.786l.542.04c.178-.073.267-.506.145-.654a78.175 78.175 0 0 1-5.615-1.414c-.177.071-.282.5-.16.648l.494.228c.82.36.897.521.46 2.266l-1.724 6.841c-.442 1.749-.588 1.85-1.478 1.783l-.543-.039c-.179.075-.285.505-.163.651 1.011.218 1.945.429 2.837.657a86.02 86.02 0 0 1 2.793.762c.177-.074.286-.5.163-.651l-.495-.225c-.819-.362-.899-.521-.458-2.268Z" style="fill:#01499a;fill-opacity:1;fill-rule:nonzero;stroke:none" transform="translate(400.33 388.164)"/><path d="M0 0c-2.348-.218-3.404-2.526-3.11-5.715.216-2.33 1.386-5.997 4.498-5.708 2.5.234 3.247 2.765 2.962 5.858C4.046-2.302 2.367.223 0 0m7.377-5.034c.387-4.162-2.168-6.918-6.27-7.299-3.839-.357-6.857 1.906-7.228 5.892C-6.472-2.657-3.919.526.072.895c3.972.367 6.948-2.054 7.305-5.929" style="fill:#01499a;fill-opacity:1;fill-rule:nonzero;stroke:none" transform="translate(412.24 399.486)"/><path d="M0 0c-.128-1.238-.25-2.438-.277-3.074-.156-.213-.709-.371-1.166-.322-.02 0-.553 1.037-1.337 2.232l-3.853 5.9c-.971 1.465-1.519 2.331-1.83 2.653-.116-.182-.15-.505-.224-1.215l-.369-3.697c-.158-1.544-.227-2.98-.069-3.518.129-.417.557-.597 1.045-.722l.525-.132c.136-.165.06-.567-.064-.664-1.027.14-1.79.237-2.552.311-.71.076-1.412.125-2.141.159-.105.128-.103.534.067.672l.328.021c.527.043.921.137 1.114.527.261.492.465 1.917.621 3.46l.489 4.844c.105 1.051.116 1.356.03 1.631-.119.346-.362.601-1.023.761l-.527.134c-.115.165-.049.62.145.659.891-.13 1.846-.245 2.627-.325a18.701 18.701 0 0 1 1.608-.106c.105-.877 1.197-2.451 2.705-4.663l1.411-2.05c.74-1.08 1.227-1.802 1.618-2.283.099.182.128.503.164.847l.267 2.632c.154 1.546.224 2.982.069 3.52-.132.42-.538.594-1.047.72l-.503.13c-.139.171-.063.564.065.669a59.353 59.353 0 0 1 2.549-.316 42.087 42.087 0 0 1 2.139-.16c.106-.123.103-.527-.066-.667l-.35-.022c-.503-.027-.879-.143-1.09-.526C.836 7.527.616 6.101.457 4.558Z" style="fill:#01499a;fill-opacity:1;fill-rule:nonzero;stroke:none" transform="translate(436.654 390.097)"/><path d="M0 0c.424-.118.531-.087.518.434L.454 2.063C.415 2.931.385 3.751.327 4.188.029 3.834-.479 3.139-.995 2.365l-.846-1.256c-.305-.451-.229-.532.232-.66Zm-2.247-.427c-.444.122-.506.119-.715-.199l-1.281-1.952c-.211-.34-.273-.483-.312-.632-.032-.111.084-.261.577-.499l.53-.247c.076-.156-.009-.595-.22-.634-.633.217-1.374.423-2.145.653-.626.179-1.067.238-1.916.478-.172.167-.045.55.124.66l.512-.083c.46-.066.87-.022 1.386.609.518.653 1.099 1.446 1.968 2.639l2.914 4.042C-.075 5.453.454 6.002.548 6.555c.942-.042 1.875.672 1.914.66.24-.066.325-.187.321-.488 0-.575.032-1.317.128-2.76l.5-7.94c.076-1.216.126-1.687.781-1.985l.67-.306c.083-.126-.003-.577-.202-.643a74.23 74.23 0 0 1-2.829.848c-.923.256-1.645.439-2.507.637-.17.168-.098.567.147.656l.614-.074c.446-.043.559.069.587.18.034.128.029.604 0 1.349L.61-1.581c-.009.322-.142.4-.792.577z" style="fill:#01499a;fill-opacity:1;fill-rule:nonzero;stroke:none" transform="translate(448.042 389.593)"/><path d="M0 0c-.373-.825-.555-1.412-.456-1.797.092-.398.344-.68 1.616-1.259 1.588-.723 2.102-.889 4.049.665.222.111.587-.142.614-.408-.498-.864-1.573-2.123-2.033-2.482-.91.454-2.577 1.23-4.008 1.882l-2.34 1.061c-.8.366-1.683.746-2.781 1.201-.107.176.039.594.229.635l.704-.213c.83-.255.997-.16 1.733 1.465l2.95 6.489c.742 1.623.706 1.829-.03 2.286l-.475.304c-.127.18.054.587.31.593a84.533 84.533 0 0 1 2.594-1.243 81.927 81.927 0 0 1 2.606-1.12c.092-.167-.09-.572-.278-.609l-.482.136c-.844.235-1.01.14-1.746-1.48Z" style="fill:#01499a;fill-opacity:1;fill-rule:nonzero;stroke:none" transform="translate(460.46 382.83)"/><path d="M0 0c1.114 1.395 1.098 1.555.533 2.227l-.316.376c-.05.184.198.527.436.483A68.792 68.792 0 0 1 5.027-.405c.046-.189-.215-.517-.41-.511l-.404.227c-.771.417-.956.373-2.067-1.024l-2.77-3.459c-1.402-1.751-2.751-3.84-.473-5.659 1.919-1.533 3.841-.321 5.482 1.729l1.453 1.813c.963 1.213 1.816 2.399 1.96 2.922.117.42-.139.774-.482 1.172l-.343.4c-.028.214.243.488.406.506a61.524 61.524 0 0 1 1.965-1.648 42.77 42.77 0 0 1 1.717-1.296c.018-.162-.191-.485-.409-.511l-.316.157c-.46.219-.814.36-1.201.154-.477-.26-1.447-1.352-2.416-2.563L5.376-9.672c-1.124-1.409-2.29-2.59-3.847-2.843-1.219-.179-2.609.32-3.824 1.289-1.138.913-2.011 1.91-2.293 3.209-.266 1.269.291 2.639 1.596 4.276z" style="fill:#01499a;fill-opacity:1;fill-rule:nonzero;stroke:none" transform="translate(481.143 378.77)"/><path d="M0 0c-.947-.815-1.859-1.604-2.313-2.045-.264-.049-.773.218-1.074.565-.01.017.317 1.134.567 2.543l1.257 6.933c.304 1.73.501 2.734.494 3.189-.208-.055-.455-.268-.993-.732l-2.815-2.43c-1.176-1.012-2.212-2.012-2.468-2.509-.193-.395-.005-.813.261-1.241l.294-.46c-.015-.216-.345-.448-.51-.439a70.705 70.705 0 0 1-1.635 1.985c-.46.534-.939 1.06-1.446 1.586.014.161.294.452.51.437l.254-.204c.415-.334.765-.533 1.171-.39.527.179 1.655 1.075 2.829 2.089l3.688 3.182c.798.691 1.018.903 1.149 1.167.142.33.142.686-.224 1.255l-.292.455c.027.202.388.488.56.382a57.681 57.681 0 0 1 1.684-2.041c.427-.493.805-.9 1.094-1.184-.529-.708-.818-2.601-1.242-5.249l-.385-2.46C.211 3.093.066 2.235.022 1.613c.195.066.445.282.705.507l1.999 1.727c1.175 1.019 2.215 2.01 2.466 2.509.195.394.025.807-.259 1.246l-.28.44c.019.214.346.447.507.437A69.593 69.593 0 0 1 6.794 6.5c.466-.537.932-1.047 1.447-1.59-.012-.162-.291-.454-.505-.437l-.27.222c-.383.329-.737.504-1.153.371-.532-.178-1.671-1.06-2.849-2.073Z" style="fill:#01499a;fill-opacity:1;fill-rule:nonzero;stroke:none" transform="translate(496.944 354.344)"/><path d="M0 0c-1.52-.97-1.575-1.139-1.231-1.967l.21-.502c-.017-.19-.4-.413-.575-.347-.529.895-1.017 1.7-1.497 2.462a80.555 80.555 0 0 1-1.613 2.426c.014.189.388.427.565.361l.371-.404c.597-.66.776-.687 2.295.281l5.952 3.787c1.524.97 1.573 1.138 1.231 1.969l-.211.501c.017.189.388.428.571.361a69.552 69.552 0 0 1 1.515-2.49 78.964 78.964 0 0 1 1.599-2.415c-.01-.187-.384-.427-.565-.36l-.371.406c-.599.659-.775.686-2.295-.284Z" style="fill:#01499a;fill-opacity:1;fill-rule:nonzero;stroke:none" transform="translate(502.033 345.919)"/><path d="M0 0c-2.516-.089-4.108-.255-5.266-.307-.152.102-.298.285-.422.545-.096.211-.115.393-.076.538.379.403 1.164 1.128 1.644 1.646l5.777 6.091c1.364 1.433 1.358 1.535 1.239 2.154l-.148.778c.128.229.466.321.621.205.391-.895.622-1.485 1.043-2.388a88.07 88.07 0 0 1 1.257-2.59c-.039-.182-.376-.319-.58-.289l-.346.473c-.216.283-.376.354-.53.283-.14-.06-.743-.678-1.593-1.579L-.588 2.217c-.529-.538-.848-.899-1.089-1.159.361 0 .927.008 1.543.039l1.935.116c1.298.07 3.582.238 4.275.306.383.032.595.064.702.116.121.054.167.139.076.605l-.11.558c.078.206.443.376.621.21.344-.836.633-1.504.938-2.166.277-.592.532-1.106.802-1.596-.006-.168-.415-.379-.573-.305l-.296.409c-.314.451-.582.619-1.054.677-.747.118-1.906.153-3.585.092Z" style="fill:#01499a;fill-opacity:1;fill-rule:nonzero;stroke:none" transform="translate(510.213 334.474)"/><path d="M0 0c-.516-.149-.549-.178-.406-.673l.357-1.273c.271-.965.466-1.147 1.402-1.082l.488.039c.182-.089.313-.548.172-.686a32.9 32.9 0 0 1-1.97-.5c-.703-.2-1.361-.403-1.938-.607-.194.048-.343.502-.214.678l.435.222c.835.434.92.699.649 1.658l-.36 1.275c-.139.497-.167.511-.716.355l-2.196-.62c-.85-.239-1.419-.48-1.671-.793-.265-.332-.311-.727.065-2.069.454-1.606.687-2.218 3.06-2.646.243-.09.3-.573.101-.706-.982-.199-2.602-.176-3.171-.061-.24.989-.72 2.765-1.149 4.279l-.677 2.398c-.25.887-.524 1.786-.951 3.162.072.177.515.301.648.182l.373-.834c.364-.793.505-.874 2.203-.398l6.88 1.947c1.681.472 1.763.615 1.692 1.49l-.037.488c.064.199.493.299.656.145.207-.877.443-1.785.692-2.673l1.107-3.911c.332-1.183.645-2.229.75-2.457-.287-.102-1.578-.604-2.793-1.045-.221.015-.381.431-.267.66.591.385 1.07.802 1.261 1.113.252.446.32 1.062.064 1.97L4.124.504c-.172.611-.211.597-.893.405Z" style="fill:#01499a;fill-opacity:1;fill-rule:nonzero;stroke:none" transform="translate(516.996 324.089)"/><path d="M0 0c-.669-.075-.718-.143-.587-1.264.078-.686.294-1.067.697-1.388.361-.285 1.011-.577 2.135-.45 1.712.196 2.704 1.331 2.533 2.816-.088.783-.151.813-1.064.708Zm2.123 2.884c1.903.216 2.106.277 2.134 1.091l.016.524c.072.204.55.258.671.039.256-1.421.501-2.894.709-4.705.184-1.618.094-3.04-.26-3.811-.521-1.18-1.409-1.861-2.626-1.999C1.07-6.17.218-5.107-.321-4.284c-.117.179-.232.169-.431.048C-3.159-5.784-4.5-6.725-5.176-7.729c-.344-.542-.405-1.048-.391-1.339-.075-.18-.361-.214-.485-.129-.167.286-.277.891-.344 1.485-.199 1.751.305 2.926 1.58 3.92.94.725 1.823 1.271 2.783 1.82.488.288.603.611.551 1.087-.075.664-.12.703-.498.659l-2.343-.267c-1.754-.201-1.873-.332-1.93-1.206l-.033-.521c-.082-.146-.54-.199-.669-.078A70.823 70.823 0 0 1-7.216.507a74.32 74.32 0 0 1-.374 2.778c.097.165.552.215.665.073l.152-.502c.25-.841.4-.943 2.152-.743z" style="fill:#01499a;fill-opacity:1;fill-rule:nonzero;stroke:none" transform="translate(519.54 309.27)"/><path d="M0 0c.071 1.765.609 2.838.856 3.235.434.343 1.824.541 3.125.49.246-.143.248-.585.031-.73C2.755 2.66.939 1.441.875-.187c-.051-1.412.898-2.099 1.857-2.138C4.284-2.387 5.259-.968 5.877.162 6.62 1.515 7.828 2.983 9.725 2.91c2.163-.067 3.593-1.808 3.488-4.586a7.787 7.787 0 0 0-.392-2.17 5.14 5.14 0 0 1-.18-.648c-.425-.138-1.468-.288-2.749-.238-.227.105-.227.582-.029.748.989.29 2.419 1.058 2.474 2.44.047 1.262-.751 1.983-1.707 2.021-.881.034-1.718-.72-2.251-1.663l-.72-1.235c-.68-1.165-1.846-2.632-3.952-2.555C1.346-4.881-.112-2.889 0 0" style="fill:#01499a;fill-opacity:1;fill-rule:nonzero;stroke:none" transform="translate(512.879 293.703)"/><path d="M0 0c-1.779.284-1.928.192-2.217-.657l-.181-.515c-.137-.133-.571-.043-.661.127.203 1.015.372 1.941.514 2.829.141.909.273 1.861.399 2.886.14.133.573.066.666-.106l.005-.543c.017-.896.127-1.03 1.908-1.314l6.966-1.114c1.78-.283 1.935-.188 2.222.658l.179.516c.138.129.577.062.66-.106a78.62 78.62 0 0 1-.516-2.869 78.33 78.33 0 0 1-.394-2.868c-.138-.131-.575-.065-.665.103l-.011.55c-.012.892-.126 1.029-1.907 1.312z" style="fill:#01499a;fill-opacity:1;fill-rule:nonzero;stroke:none" transform="translate(514.635 280.438)"/><path d="M0 0c.444-.133.533-.16.665.282l.341 1.137C1.409 2.762.788 3.37-.386 4.321c-.043.252.099.591.369.628 1.154-.763 2.263-1.196 2.94-1.54a.463.463 0 0 0 .015-.285.458.458 0 0 0-.149-.237c-.339.004-.431-.029-.85-1.424L-.11-5.369C-.475-6.584-.537-6.868-.2-7.146a.525.525 0 0 0-.016-.253.423.423 0 0 0-.213-.238c-.568.37-2.019.948-3.076 1.225-.136.138-.025.648.151.692 1.265-.039 2.206-.039 2.621 1.337l.329 1.101c.133.444.094.514-.383.659L-8.891-.197c-1.707.511-1.883.447-2.242-.346l-.311-.706c-.15-.099-.573.031-.644.19.394 1.187.688 2.095.938 2.92.265.887.533 1.848.879 3.143.157.112.578-.016.645-.192l-.156-.855c-.158-.853-.024-1.014 1.682-1.525Z" style="fill:#01499a;fill-opacity:1;fill-rule:nonzero;stroke:none" transform="translate(520.46 268.231)"/><path d="M0 0c-1.608.779-1.794.74-2.271.014l-.422-.647c-.162-.067-.56.119-.605.293a85.783 85.783 0 0 1 1.407 2.77c.404.827.805 1.698 1.265 2.734.172.085.564-.105.604-.293l-.2-.626c-.255-.839-.185-1 1.419-1.781l.863-.415c.861-.422 1.143-.539 2.276-.534l5.235-.005c.876 0 1.225.023 1.625.576l.388.533c.213.088.619-.128.564-.361a55.292 55.292 0 0 1-1.231-2.404 54.548 54.548 0 0 1-1.169-2.543c-.141-.123-.553.037-.614.26l.143.654c.083.342.061.479.046.488-.139.064-.439.105-1.426.138l-2.237.085c-.694.014-1.542.025-2.074.025.601-.908 1.37-1.878 2.023-2.77.902-1.249 1.358-1.769 1.564-1.868.105-.051.253.088.525.47l.26.362c.155.099.594-.097.594-.306a47.14 47.14 0 0 1-.993-1.908c-.315-.66-.56-1.197-.764-1.717-.167-.172-.582.028-.638.227l.134.486c.099.337.138.722-.012 1.032-.201.417-.614 1.148-1.713 2.705l-1.434 2.04c-.594.844-.943 1.226-1.924 1.703Z" style="fill:#01499a;fill-opacity:1;fill-rule:nonzero;stroke:none" transform="translate(505.856 254.023)"/><path d="M0 0v-1.733h-26.588V0c4.102.456 6.13 2.763 6.338 5.499h-31.741c7.415-9.635 19.418-19.417 38.683-26.221C5.958-13.918 17.96-4.136 25.376 5.499H-6.338C-6.131 2.763-4.102.456 0 0m-20.23 54.034h-43.291V35.438c0-1.017.074-2.31.266-3.83h43.025zm0-24.267h-42.749c.996-5.779 3.597-13.967 9.625-22.427h33.124ZM-6.358 7.34h33.096c6.031 8.46 8.63 16.648 9.625 22.427H-6.358ZM7.509 77.253 3.69 70.087h-33.974l-3.812 7.166h-29.425V55.875h43.271c-.203 2.734-2.232 5.047-6.338 5.502v1.735H0v-1.735c-4.106-.455-6.134-2.768-6.338-5.502h43.243v21.378ZM-6.358 31.608h42.997c.193 1.52.266 2.813.266 3.83v18.596H-6.358Zm15.541 48.82 3.706 6.981h-52.385l3.697-6.981zm-19.58 10.489c-.323-.123-.332-.41-.005-.459 4.644-.089 8.938 1.855 11.526 5.27 2.259 2.98 2.85 6.6 1.654 10.198-1.71 5.175-5.943 7.764-9.557 10.726-4.23 3.451-6.789 6.156-7.374 10.55-.107.699-.374.616-.66.04-4.209-8.647 2.47-12.476 7.597-19.527 6.473-8.906-.155-15.446-3.181-16.798m-6.832-1.508c.566-.071 1.587-.159 2.222-.159.789-.033.679.476.3.675-5.872 3.498-8.64 7.559-8.367 11.506.173 2.477 1.509 4.483 3.038 5.582-.199-.82-.167-1.62.105-2.351.454-1.202 1.347-1.775 3.021-2.733 3.763-2.157 2.842-5.187 1.014-6.296l.011-.014c-.31-.151-.344-.48.061-.456 1.638.157 3.245 1.096 4.783 2.976 1.027 1.254 2.123 3.414 1.508 6.579-.931 4.728-4.839 7.37-7.825 9.114-.594.356-1.121.66-1.525.934-.416.255-1.144.493-.92-.313.999-3.007-.799-4.226-3.398-6.021-1.534-1.043-3.264-2.229-4.683-3.992-2.618-3.196-2.288-5.98-1.552-7.747 1.547-3.714 6.349-6.574 12.207-7.284" style="fill:#01499a;fill-opacity:1;fill-rule:nonzero;stroke:none" transform="translate(434.992 256.315)"/><path d="M0 0v3.021h1.874c.917-.003 1.223-.706 1.24-1.434C3.1.698 2.695.002 1.858 0Zm2.827-2.826c.127-1.427.013-2.836.446-3.695l.061-.118h1.875l-.086.285c-.198.623-.356 2.344-.369 2.786-.018 1.731-.41 2.505-1.229 2.833.931.441 1.451 1.373 1.442 2.47-.003 1.417-.77 2.928-2.823 2.93h-3.966V-6.639H0v4.999h1.407c.47-.024 1.321-.022 1.42-1.186m5.067-3.813h1.822V4.665H7.894Zm-23.319.159 3.255 11.145h-1.873l-2.388-8.973-2.33 8.973h-1.965l3.27-11.304h1.983zm55.578 1.485h-3.991l.003 9.66h-1.824V-6.639h5.812zm20.445.002h-4.301v3.324h3.91v1.642h-3.912v3.05h4.213v1.644h-6.037V-6.637h6.127zm-64.825-.002h-4.302v3.323l3.912-.002v1.643h-3.912v3.054h4.211v1.644h-6.034V-6.639h6.125zm51.717.002v3.441h1.254c1.412-.042 2.235-.212 2.263-1.811-.014-.711-.431-1.623-1.782-1.63zm0 8.016h1.735c1.053-.019 1.429-.597 1.452-1.42-.026-.982-.415-1.476-1.394-1.511H47.49Zm4.097-9.142c.729.45 1.281 1.312 1.274 2.756.021 1.316-.555 2.306-1.731 2.681.998.464 1.387 1.405 1.369 2.569a3.1 3.1 0 0 1-.47 1.563c-.415.642-1.059 1.232-2.607 1.217h-3.756V-6.639h3.709c.634.002 1.488.065 2.212.52M65.919 0h-1.857v3.021h1.873c.917-.003 1.222-.706 1.24-1.432C67.16.698 66.756.002 65.919 0m3.264-6.353c-.196.623-.354 2.343-.366 2.787-.021 1.729-.413 2.504-1.229 2.833.928.441 1.449 1.373 1.439 2.472-.002 1.413-.77 2.924-2.821 2.926h-3.968V-6.639h1.824v4.999h1.407c.47-.024 1.319-.022 1.42-1.186.126-1.429.013-2.832.446-3.694l.06-.119h1.876zM43.401 4.665h-1.822V-6.639h1.822zm4.036-31.312 1.426 4.858 1.465-4.858zm.434 7.074-.046-.154-3.538-11.148h1.862l.811 2.586h3.874l.783-2.586h2.014l-3.679 11.302zm-11.359-1.643h2.858v-9.661h1.823v9.661h2.859v1.643h-7.54zM6.118-24.522c-1.252.649-2.345 1.149-2.321 2.157.013 1.043.685 1.352 1.453 1.376 1.167-.032 1.411-.569 1.45-1.685v-.289h1.876l.007.213.003.254c.002 1.055-.287 1.859-.858 2.39-.571.527-1.387.757-2.372.757-1.899-.004-3.406-1.122-3.41-3.168 0-1.766 1.338-2.583 2.554-3.215 1.249-.649 2.344-1.171 2.319-2.187-.022-1.174-.671-1.511-1.719-1.543-.819.025-1.583.361-1.601 1.724l-.002.316v.218H1.702l-.013-.206c-.004-.095-.01-.204-.01-.321.004-.582.065-1.415.524-2.122.46-.71 1.329-1.249 2.798-1.249h.084c.922 0 1.812.189 2.488.702.677.507 1.106 1.35 1.1 2.541.004 1.849-1.336 2.698-2.555 3.337m-11.611-2.125 1.426 4.857 1.462-4.857zm.434 7.072-.048-.152-3.537-11.15h1.863l.811 2.589h3.875l.78-2.589H.702l-3.68 11.302zm-11.36-1.641h2.859v-9.661h1.823v9.661h2.86v1.643h-7.542zm75.467-3.306c-1.252.649-2.344 1.149-2.32 2.158.012 1.042.686 1.349 1.452 1.373 1.167-.03 1.412-.565 1.451-1.683v-.287h1.875l.005.211c.004.087.007.172.007.252 0 1.057-.289 1.861-.86 2.392-.574.527-1.387.757-2.372.757-1.899-.004-3.406-1.12-3.41-3.167 0-1.767 1.339-2.584 2.554-3.216 1.251-.651 2.343-1.169 2.32-2.187-.021-1.174-.673-1.511-1.721-1.541-.817.027-1.58.359-1.601 1.722l-.002.316v.218h-1.793l-.013-.206a6.257 6.257 0 0 1-.007-.321c0-.585.061-1.415.52-2.122.458-.71 1.33-1.249 2.797-1.249h.085c.923 0 1.813.187 2.487.702.678.507 1.105 1.35 1.101 2.541.004 1.849-1.335 2.7-2.555 3.337" style="fill:#fff;fill-opacity:1;fill-rule:nonzero;stroke:none" transform="translate(398.793 300.094)"/><path d="M0 0a.905.905 0 0 1-.308.599l-1.547 1.423-.11-.119c.022-.255-.011-.532-.415-.974L-9.937-7.28l1.955-1.798L-.226-.653A.832.832 0 0 1 0 0" style="fill:#01499a;fill-opacity:1;fill-rule:nonzero;stroke:none" transform="translate(366.185 227.424)"/><path d="m0 0 3.222 3.498L1.27 5.295-2.106 1.63a1.323 1.323 0 0 1 .077-1.871l8.423-7.752 1.048 1.14z" style="fill:#01499a;fill-opacity:1;fill-rule:nonzero;stroke:none" transform="translate(348.138 222.349)"/><path d="M0 0c-1 .923-.8 2.762.447 4.117 1.246 1.355 3.067 1.707 4.067.788 1.002-.922.801-2.766-.446-4.119C2.821-.569 1.001-.92 0 0m5.565 6.047C3.485 7.961.319 7.903-1.509 5.919c-1.826-1.983-1.623-5.148.457-7.062 2.079-1.916 5.249-1.854 7.075.127C7.851.972 7.646 4.135 5.565 6.047" style="fill:#01499a;fill-opacity:1;fill-rule:nonzero;stroke:none" transform="translate(353.496 228.231)"/><path d="m0 0 1.731 4.431-2.47.965L-2.553.754a1.32 1.32 0 0 1 .75-1.713L8.856-5.127l.566 1.444z" style="fill:#01499a;fill-opacity:1;fill-rule:nonzero;stroke:none" transform="translate(380.137 200.48)"/><path d="M0 0c-.048.802.112 1.584.302 2.212L4.042.749l.564 1.442L.841 3.663l.3.768c.094.24.084.47-.027.694a.916.916 0 0 1-.506.445l-1.889.739-.059-.152c.111-.229.184-.5-.035-1.057l-.192-.495-3.701 1.447-.565-1.443 3.67-1.434c-.286-.59-.696-1.275-1.276-1.83C-4.564.272-5.781-.627-8.709-1.083l.283-1.675c2.744.087 4.795.992 6.236 2.131.289-1.815 1.182-3.869 3.136-5.795l1.346 1.037C.45-3.065.099-1.551 0 0" style="fill:#01499a;fill-opacity:1;fill-rule:nonzero;stroke:none" transform="translate(385.902 210.364)"/><path d="M0 0a.911.911 0 0 1-.503.449l-1.957.765-.06-.151c.112-.231.184-.501-.034-1.061l-1.288-3.294-3.374 1.319-.565-1.443 3.375-1.32-2.211-5.652 2.472-.966L.026-.688A.822.822 0 0 1 0 0" style="fill:#01499a;fill-opacity:1;fill-rule:nonzero;stroke:none" transform="translate(395.113 211.756)"/><path d="M0 0a.91.91 0 0 1-.633.235h-2.104V.071c.188-.172.355-.399.355-.998v-4.257h-1.451v4.551A.82.82 0 0 1-4.106 0a.916.916 0 0 1-.637.235h-2.105V.071c.189-.172.354-.399.354-.998v-9.587c-.893-.465-2.336-.534-3.033-.534h-3.676v9.032h5.26v1.557h-7.921v-10.818c0-.731.591-1.323 1.324-1.323h5.013c.697.002 2.14.067 3.033.537v-5.443h2.661v10.768h1.451v-10.768H.274V-.633A.82.82 0 0 1 0 0" style="fill:#01499a;fill-opacity:1;fill-rule:nonzero;stroke:none" transform="translate(429.256 207.68)"/><path d="m0 0-1.446 3.55a.827.827 0 0 1-.487.485.916.916 0 0 1-.676-.024l-1.951-.794.062-.15c.241-.088.479-.238.706-.79l3.336-8.2 2.459 1L.584-1.438 3.352-.312l-.585 1.438z" style="fill:#01499a;fill-opacity:1;fill-rule:nonzero;stroke:none" transform="translate(460.76 211.42)"/><path d="M0 0c-1.334-.543-2.729.179-3.285 1.545-.557 1.369-.062 2.859 1.272 3.4 1.332.545 2.727-.178 3.284-1.546C1.827 2.033 1.332.541 0 0m2.254 8.528-3.75-1.525-.31.762a.814.814 0 0 1-.497.488.915.915 0 0 1-.673-.025l-1.814-.739.063-.151c.241-.089.48-.236.705-.791l.201-.492-3.75-1.526.584-1.432 1.401.569c-.481-1.004-.576-2.114-.165-3.125.878-2.162 3.716-3.047 6.336-1.982 2.618 1.065 4.028 3.68 3.15 5.842C3.324 5.41 2.48 6.14 1.436 6.522l1.402.573z" style="fill:#01499a;fill-opacity:1;fill-rule:nonzero;stroke:none" transform="translate(452.684 204.337)"/><path d="m0 0-10.259-4.172.587-1.441 9.014 3.668 1.735-4.269L3.544-5.21 1.72-.727A1.319 1.319 0 0 1 0 0" style="fill:#01499a;fill-opacity:1;fill-rule:nonzero;stroke:none" transform="translate(462.13 204.55)"/><path d="m0 0-9.068-7.87 1.019-1.172L.005-2.053l6.343-7.309 2.008 1.746L1.863-.131C1.383.421.548.479 0 0" style="fill:#01499a;fill-opacity:1;fill-rule:nonzero;stroke:none" transform="translate(485.73 233.023)"/><path d="m0 0-3.532 4.071a.834.834 0 0 1-.621.301.913.913 0 0 1-.636-.24L-6.38 2.753l.108-.123c.258-.009.532-.069.921-.521l3.343-3.851-1.763-1.529L-7.304.8a.825.825 0 0 1-.621.297.91.91 0 0 1-.636-.237l-1.592-1.382.107-.124c.255-.007.53-.071.922-.521l3.341-3.851-2.619-2.274 1.013-1.169L5.96 3.123 4.945 4.292Z" style="fill:#01499a;fill-opacity:1;fill-rule:nonzero;stroke:none" transform="translate(491.972 221.177)"/></g></svg>